<?xml version="1.0" standalone="no"?>
<!DOCTYPE svg PUBLIC "-//W3C//DTD SVG 20010904//EN"
 "http://www.w3.org/TR/2001/REC-SVG-20010904/DTD/svg10.dtd">
<svg version="1.0" xmlns="http://www.w3.org/2000/svg"
 width="250.000000pt" height="250.000000pt" viewBox="0 0 250.000000 250.000000"
 preserveAspectRatio="xMidYMid meet">
<metadata>
Created by CoolUtils
</metadata>
<g transform="translate(0.000000,250.000000) scale(0.100000,-0.100000)"
fill="#000000" stroke="none">
<path d="M1025 1612 c-118 -40 -214 -126 -268 -240 -30 -63 -32 -74 -32 -182
0 -108 2 -119 32 -182 17 -37 53 -90 79 -118 49 -53 156 -120 190 -120 11 0
24 -4 29 -9 6 -6 35 -11 65 -13 l55 -3 3 -87 3 -88 34 0 34 0 3 98 3 97 29 3
c16 2 46 15 67 28 21 13 44 24 51 24 7 0 66 -52 130 -115 117 -115 137 -126
183 -109 18 7 45 55 45 80 0 10 -54 72 -120 139 l-120 121 29 55 c41 76 59
190 43 268 -16 77 -54 162 -95 213 -40 50 -146 120 -216 141 -68 22 -190 21
-256 -1z m243 -159 c40 -17 115 -84 141 -127 31 -50 42 -134 26 -195 -31 -117
-102 -189 -217 -218 -52 -13 -69 -14 -117 -2 -133 32 -231 150 -231 279 0 198
214 340 398 263z"/>
<path d="M1050 650 c0 -47 4 -80 10 -80 6 0 10 33 10 80 0 47 -4 80 -10 80 -6
0 -10 -33 -10 -80z"/>
</g>
</svg>
