<?xml version="1.0" standalone="no"?>
<!DOCTYPE svg PUBLIC "-//W3C//DTD SVG 20010904//EN"
 "http://www.w3.org/TR/2001/REC-SVG-20010904/DTD/svg10.dtd">
<svg version="1.0" xmlns="http://www.w3.org/2000/svg"
 width="600.000000pt" height="600.000000pt" viewBox="0 0 600.000000 600.000000"
 preserveAspectRatio="xMidYMid meet">
<metadata>
Created by CoolUtils
</metadata>
<g transform="translate(0.000000,600.000000) scale(0.100000,-0.100000)"
fill="#000000" stroke="none">
<path d="M2605 3900 c-95 -7 -154 -24 -170 -50 -3 -5 -23 -10 -44 -10 -27 0
-49 -9 -76 -30 -21 -16 -43 -30 -49 -30 -46 0 -272 -198 -343 -300 -51 -73
-120 -202 -128 -239 -4 -18 -16 -48 -26 -65 -24 -40 -39 -176 -39 -351 0 -150
13 -247 40 -290 10 -16 23 -50 30 -75 30 -117 178 -326 298 -423 71 -56 165
-115 219 -136 17 -7 46 -24 64 -37 25 -18 46 -24 85 -24 36 0 59 -6 77 -20 22
-17 46 -22 144 -27 65 -3 124 -10 131 -16 9 -7 12 -62 12 -213 l0 -204 86 0
86 0 -4 230 -3 230 35 10 c19 6 49 10 66 10 35 0 202 80 229 110 40 44 62 31
252 -152 202 -196 293 -289 329 -335 31 -38 101 -58 173 -48 49 7 83 32 124
95 21 31 23 131 3 168 -8 15 -134 146 -280 292 -158 157 -266 272 -266 283 0
11 13 36 28 56 16 20 36 54 44 76 9 22 28 60 42 85 14 25 26 61 26 81 0 20 9
71 20 114 27 107 28 283 0 386 -11 41 -20 83 -20 93 0 24 -81 202 -131 286
-65 112 -223 263 -345 331 -32 18 -70 40 -84 50 -14 9 -52 24 -84 32 -32 9
-66 23 -75 31 -33 30 -251 42 -476 26z m382 -393 c29 -15 61 -27 73 -27 51 0
243 -171 315 -282 46 -70 75 -162 94 -293 9 -61 7 -83 -15 -180 -39 -172 -77
-242 -192 -355 -113 -110 -175 -146 -327 -185 -119 -30 -209 -32 -296 -6 -35
11 -78 22 -95 26 -42 8 -164 88 -236 154 -58 53 -140 160 -151 196 -3 11 -17
48 -32 83 -25 61 -26 69 -23 225 3 151 5 167 32 232 15 39 50 104 77 145 80
125 236 233 418 291 14 4 89 7 166 6 131 -2 143 -4 192 -30z"/>
</g>
</svg>
