<?xml version="1.0" standalone="no"?>
<!DOCTYPE svg PUBLIC "-//W3C//DTD SVG 20010904//EN"
 "http://www.w3.org/TR/2001/REC-SVG-20010904/DTD/svg10.dtd">
<svg version="1.0" xmlns="http://www.w3.org/2000/svg"
 width="24.000000pt" height="24.000000pt" viewBox="0 0 24.000000 24.000000"
 preserveAspectRatio="xMidYMid meet">
<metadata>
Created by CoolUtils
</metadata>
<g transform="translate(0.000000,24.000000) scale(0.100000,-0.100000)"
fill="#000000" stroke="none">
<path d="M86 144 c-9 -8 -16 -24 -16 -34 0 -22 32 -43 53 -34 8 3 18 1 22 -5
3 -6 11 -11 18 -11 8 0 8 3 -1 12 -7 7 -12 24 -12 40 0 17 -7 31 -19 38 -25
13 -27 13 -45 -6z m49 -29 c0 -23 -34 -33 -46 -14 -10 17 9 41 30 37 9 -2 16
-12 16 -23z"/>
</g>
</svg>
